<?xml version="1.0" encoding="iso-8859-1"?>
<!-- Uploaded to: SVG Repo, www.svgrepo.com, Generator: SVG Repo Mixer Tools -->
<!DOCTYPE svg PUBLIC "-//W3C//DTD SVG 1.1//EN" "http://www.w3.org/Graphics/SVG/1.1/DTD/svg11.dtd">
<svg fill="#000000" version="1.1" id="Capa_1" xmlns="http://www.w3.org/2000/svg" xmlns:xlink="http://www.w3.org/1999/xlink" 
	 width="800px" height="800px" viewBox="0 0 17.117 17.117"
	 xml:space="preserve">
<g>
	<path d="M8.557,0.001C3.839,0.001,0,3.84,0,8.559c0,3.588,2.222,6.662,5.361,7.932c0.989,0.4,2.066,0.625,3.197,0.625
		c1.375,0,2.672-0.334,3.826-0.914c2.801-1.408,4.732-4.301,4.732-7.643C17.115,3.84,13.275,0.001,8.557,0.001z M12.322,15.664
		c0.006-0.049,0.006-0.099,0.016-0.147c0.215-0.967,0.477-1.925,0.779-2.869c0.492-1.551,0.791-3.103,0.301-4.712
		c-0.549-1.8-1.639-3.077-3.488-3.632C9.8,4.265,9.669,4.146,9.597,4.029c-0.263-0.422-0.556-0.811-1.03-1.163
		C8.545,3.075,8.521,3.208,8.52,3.342C8.518,3.541,8.526,3.74,8.543,3.938c0.024,0.275-0.06,0.441-0.365,0.465
		C8.008,4.417,7.842,4.48,7.682,4.519c0,0.618,0,0.618-0.56,0.846C6.938,5.44,6.743,5.496,6.573,5.595
		c-0.137,0.08-0.257,0.2-0.363,0.322C5.964,6.198,5.76,6.521,5.488,6.773C4.946,7.276,4.379,7.754,3.805,8.221
		C3.557,8.423,3.369,8.605,3.492,8.96c0.036,0.104-0.013,0.239-0.036,0.357c-0.069,0.365,0.245,0.994,0.582,1.158
		c0.799,0.387,1.428,0.279,2.06-0.36C6.396,9.813,6.723,9.694,7.145,9.84c0.58,0.201,1.173,0.351,1.867,0.187
		c-0.136,0.145-0.217,0.231-0.3,0.316c-0.792,0.807-1.558,1.635-2.138,2.612c-0.461,0.776-0.838,1.594-0.823,2.519
		c0.003,0.211,0.026,0.424,0.054,0.637c-3.083-1.129-5.294-4.082-5.294-7.55c0-4.437,3.609-8.046,8.046-8.046
		c4.437,0,8.046,3.609,8.046,8.046C16.603,11.635,14.867,14.312,12.322,15.664z"/>
</g>
</svg>